<svg width="397" height="136" viewBox="0 0 397 136" fill="none" xmlns="http://www.w3.org/2000/svg">
<rect x="240" y="104" width="97" height="31.0618" rx="15.5309" fill="#12DB89"/>
<path d="M256.772 124.629V113.781H260.572C261.888 113.781 262.886 114.035 263.567 114.541C264.247 115.043 264.587 115.781 264.587 116.754C264.587 117.286 264.451 117.755 264.178 118.162C263.904 118.565 263.524 118.86 263.038 119.049C263.594 119.188 264.031 119.469 264.349 119.891C264.672 120.313 264.833 120.83 264.833 121.44C264.833 122.483 264.5 123.273 263.835 123.81C263.169 124.346 262.221 124.619 260.989 124.629H256.772ZM259.007 119.906V122.834H260.922C261.448 122.834 261.858 122.709 262.151 122.461C262.449 122.208 262.598 121.86 262.598 121.418C262.598 120.425 262.084 119.921 261.056 119.906H259.007ZM259.007 118.326H260.661C261.789 118.306 262.352 117.857 262.352 116.978C262.352 116.486 262.208 116.133 261.92 115.92C261.637 115.701 261.188 115.592 260.572 115.592H259.007V118.326ZM271.047 124.629C270.948 124.436 270.876 124.195 270.831 123.907C270.309 124.488 269.631 124.778 268.797 124.778C268.007 124.778 267.351 124.55 266.83 124.093C266.313 123.636 266.055 123.06 266.055 122.364C266.055 121.51 266.371 120.854 267.001 120.397C267.637 119.94 268.553 119.709 269.751 119.704H270.741V119.243C270.741 118.87 270.645 118.572 270.451 118.349C270.262 118.125 269.962 118.013 269.549 118.013C269.187 118.013 268.901 118.1 268.693 118.274C268.489 118.448 268.387 118.686 268.387 118.989H266.234C266.234 118.522 266.378 118.09 266.666 117.693C266.954 117.296 267.361 116.985 267.888 116.762C268.414 116.533 269.005 116.419 269.661 116.419C270.655 116.419 271.442 116.67 272.023 117.171C272.609 117.668 272.902 118.368 272.902 119.272V122.767C272.907 123.532 273.014 124.11 273.222 124.503V124.629H271.047ZM269.266 123.132C269.584 123.132 269.877 123.062 270.145 122.923C270.414 122.779 270.612 122.588 270.741 122.349V120.964H269.937C268.859 120.964 268.285 121.336 268.216 122.081L268.208 122.208C268.208 122.476 268.303 122.697 268.491 122.871C268.68 123.045 268.938 123.132 269.266 123.132ZM277.909 123.042C278.306 123.042 278.629 122.933 278.877 122.714C279.126 122.496 279.255 122.205 279.265 121.843H281.284C281.279 122.389 281.13 122.891 280.837 123.348C280.544 123.8 280.141 124.152 279.63 124.406C279.123 124.654 278.562 124.778 277.946 124.778C276.794 124.778 275.885 124.413 275.219 123.683C274.554 122.948 274.221 121.935 274.221 120.643V120.502C274.221 119.26 274.551 118.269 275.212 117.529C275.872 116.789 276.779 116.419 277.931 116.419C278.939 116.419 279.746 116.707 280.352 117.283C280.963 117.854 281.274 118.617 281.284 119.57H279.265C279.255 119.153 279.126 118.815 278.877 118.557C278.629 118.294 278.301 118.162 277.894 118.162C277.392 118.162 277.012 118.346 276.754 118.714C276.501 119.076 276.374 119.667 276.374 120.487V120.71C276.374 121.54 276.501 122.136 276.754 122.498C277.007 122.861 277.392 123.042 277.909 123.042ZM285.441 121.396L284.666 122.171V124.629H282.513V113.185H284.666V119.526L285.083 118.989L287.147 116.568H289.733L286.819 119.928L289.986 124.629H287.512L285.441 121.396ZM294.851 120.852H290.656V119.116H294.851V120.852ZM300.29 124.778C299.108 124.778 298.144 124.416 297.399 123.69C296.659 122.965 296.289 121.999 296.289 120.792V120.584C296.289 119.774 296.445 119.051 296.758 118.416C297.071 117.775 297.513 117.283 298.084 116.94C298.661 116.593 299.316 116.419 300.051 116.419C301.154 116.419 302.021 116.767 302.652 117.462C303.287 118.157 303.605 119.143 303.605 120.42V121.299H298.472C298.541 121.825 298.75 122.248 299.098 122.565C299.45 122.883 299.895 123.042 300.431 123.042C301.261 123.042 301.909 122.742 302.376 122.141L303.434 123.325C303.111 123.782 302.674 124.14 302.123 124.398C301.571 124.652 300.96 124.778 300.29 124.778ZM300.044 118.162C299.617 118.162 299.269 118.306 299.001 118.594C298.738 118.882 298.569 119.295 298.494 119.831H301.489V119.66C301.479 119.183 301.35 118.815 301.102 118.557C300.853 118.294 300.501 118.162 300.044 118.162ZM306.816 116.568L306.883 117.499C307.46 116.779 308.232 116.419 309.2 116.419C310.055 116.419 310.69 116.67 311.108 117.171C311.525 117.673 311.739 118.423 311.748 119.421V124.629H309.595V119.474C309.595 119.017 309.496 118.686 309.297 118.483C309.099 118.274 308.768 118.17 308.306 118.17C307.7 118.17 307.246 118.428 306.943 118.945V124.629H304.79V116.568H306.816ZM313.052 120.539C313.052 119.282 313.333 118.281 313.894 117.536C314.46 116.791 315.233 116.419 316.211 116.419C316.996 116.419 317.644 116.712 318.156 117.298V113.185H320.316V124.629H318.372L318.268 123.772C317.731 124.443 317.041 124.778 316.196 124.778C315.248 124.778 314.485 124.406 313.909 123.661C313.338 122.911 313.052 121.87 313.052 120.539ZM315.205 120.695C315.205 121.45 315.337 122.029 315.6 122.431C315.864 122.834 316.246 123.035 316.748 123.035C317.413 123.035 317.883 122.754 318.156 122.193V119.012C317.888 118.45 317.423 118.17 316.763 118.17C315.724 118.17 315.205 119.012 315.205 120.695Z" fill="#333333"/>
<path d="M123.848 70.9215C123.848 66.0885 124.797 61.8022 126.696 58.0624C128.652 54.3226 131.27 51.4458 134.55 49.4321C137.887 47.4183 141.598 46.4115 145.683 46.4115C149.25 46.4115 152.357 47.1307 155.003 48.5691C157.707 50.0074 159.865 51.8198 161.476 54.0061V47.1882H173.645V95H161.476V88.0095C159.923 90.2533 157.765 92.1232 155.003 93.6192C152.299 95.0575 149.164 95.7767 145.596 95.7767C141.569 95.7767 137.887 94.7411 134.55 92.6698C131.27 90.5986 128.652 87.693 126.696 83.9532C124.797 80.1559 123.848 75.812 123.848 70.9215ZM161.476 71.0941C161.476 68.1598 160.901 65.657 159.75 63.5858C158.599 61.4569 157.046 59.846 155.09 58.7528C153.133 57.6021 151.033 57.0267 148.79 57.0267C146.546 57.0267 144.474 57.5733 142.576 58.6665C140.677 59.7597 139.124 61.3706 137.915 63.4995C136.765 65.5707 136.189 68.0447 136.189 70.9215C136.189 73.7983 136.765 76.3298 137.915 78.5162C139.124 80.645 140.677 82.2847 142.576 83.4354C144.532 84.5861 146.603 85.1615 148.79 85.1615C151.033 85.1615 153.133 84.6149 155.09 83.5217C157.046 82.371 158.599 80.76 159.75 78.6888C160.901 76.56 161.476 74.0284 161.476 71.0941ZM204.173 46.4115C207.74 46.4115 210.876 47.1307 213.58 48.5691C216.284 49.9499 218.413 51.7623 219.966 54.0061V47.1882H232.135V95.3452C232.135 99.7754 231.243 103.717 229.46 107.169C227.676 110.678 225.001 113.44 221.434 115.454C217.866 117.525 213.551 118.561 208.488 118.561C201.699 118.561 196.118 116.978 191.745 113.814C187.43 110.65 184.985 106.334 184.41 100.869H196.406C197.039 103.055 198.391 104.781 200.462 106.047C202.591 107.37 205.151 108.032 208.143 108.032C211.653 108.032 214.501 106.967 216.687 104.839C218.873 102.767 219.966 99.6028 219.966 95.3452V87.9232C218.413 90.167 216.255 92.0369 213.494 93.5329C210.79 95.0288 207.683 95.7767 204.173 95.7767C200.146 95.7767 196.463 94.7411 193.126 92.6698C189.789 90.5986 187.143 87.693 185.186 83.9532C183.288 80.1559 182.338 75.812 182.338 70.9215C182.338 66.0885 183.288 61.8022 185.186 58.0624C187.143 54.3226 189.76 51.4458 193.04 49.4321C196.377 47.4183 200.088 46.4115 204.173 46.4115ZM219.966 71.0941C219.966 68.1598 219.391 65.657 218.24 63.5858C217.09 61.4569 215.536 59.846 213.58 58.7528C211.624 57.6021 209.524 57.0267 207.28 57.0267C205.036 57.0267 202.965 57.5733 201.066 58.6665C199.167 59.7597 197.614 61.3706 196.406 63.4995C195.255 65.5707 194.68 68.0447 194.68 70.9215C194.68 73.7983 195.255 76.3298 196.406 78.5162C197.614 80.645 199.167 82.2847 201.066 83.4354C203.022 84.5861 205.094 85.1615 207.28 85.1615C209.524 85.1615 211.624 84.6149 213.58 83.5217C215.536 82.371 217.09 80.76 218.24 78.6888C219.391 76.56 219.966 74.0284 219.966 71.0941ZM250.063 41.4922C247.934 41.4922 246.151 40.8306 244.712 39.5073C243.332 38.1264 242.641 36.4291 242.641 34.4154C242.641 32.4016 243.332 30.7331 244.712 29.4098C246.151 28.029 247.934 27.3385 250.063 27.3385C252.192 27.3385 253.947 28.029 255.328 29.4098C256.766 30.7331 257.485 32.4016 257.485 34.4154C257.485 36.4291 256.766 38.1264 255.328 39.5073C253.947 40.8306 252.192 41.4922 250.063 41.4922ZM256.018 47.1882V95H243.936V47.1882H256.018ZM280.038 31.1359V95H267.956V31.1359H280.038ZM298.103 41.4922C295.974 41.4922 294.191 40.8306 292.752 39.5073C291.371 38.1264 290.681 36.4291 290.681 34.4154C290.681 32.4016 291.371 30.7331 292.752 29.4098C294.191 28.029 295.974 27.3385 298.103 27.3385C300.232 27.3385 301.987 28.029 303.367 29.4098C304.806 30.7331 305.525 32.4016 305.525 34.4154C305.525 36.4291 304.806 38.1264 303.367 39.5073C301.987 40.8306 300.232 41.4922 298.103 41.4922ZM304.058 47.1882V95H291.975V47.1882H304.058ZM330.063 57.113V80.2422C330.063 81.8532 330.437 83.0327 331.185 83.7806C331.99 84.471 333.313 84.8163 335.155 84.8163H340.764V95H333.17C322.986 95 317.894 90.052 317.894 80.1559V57.113H312.198V47.1882H317.894V35.3647H330.063V47.1882H340.764V57.113H330.063ZM395.195 47.1882L365.593 117.611H352.734L363.09 93.7918L343.931 47.1882H357.481L369.822 80.5874L382.336 47.1882H395.195Z" fill="#279AF1"/>
<path d="M5.73396 114.605C5.73396 114.605 5.65645 97.4254 12.1611 90.9208C18.6657 84.4162 35.936 84.864 35.936 84.864C35.936 84.864 35.9339 101.687 29.4745 108.146C23.015 114.605 5.73396 114.605 5.73396 114.605Z" fill="#FFAC33"/>
<path d="M14.4022 97.3806C14.4022 92.6243 18.2585 88.768 23.0148 88.768C27.7711 88.768 31.6273 92.6243 31.6273 97.3806C31.6273 102.137 27.7711 105.993 23.0148 105.993C18.2585 105.993 14.4022 102.137 14.4022 97.3806Z" fill="#FFCC4D"/>
<path d="M85.7644 63.6073C86.9422 89.6118 86.2847 101.58 71.524 116.341C69.4009 118.464 65.7639 119.04 63.8267 115.679L54.6268 99.7179L85.7644 63.6073Z" fill="#473BF0"/>
<path d="M56.3917 34.2341C30.3875 33.0563 18.4191 33.7137 3.65852 48.4743C1.53541 50.5974 0.960111 54.2343 4.32087 56.1715L20.2816 65.3713L56.3917 34.2341Z" fill="#473BF0"/>
<path d="M21.1705 74.7346L18.4023 77.5027C15.2691 80.636 15.2691 85.6807 18.4023 88.814L31.1859 101.598C34.3192 104.731 39.364 104.731 42.4972 101.598L45.2653 98.8294L21.1705 74.7346Z" fill="#473BF0"/>
<path d="M85.6879 68.7205L54.4407 102.23C51.4188 105.471 46.2627 105.363 43.1295 102.23L17.7701 76.8705C14.6369 73.7373 14.5294 68.5812 17.7701 65.5593L51.2795 34.3121C59.8287 26.7526 86.9737 21.6508 92.6614 27.3386C98.3492 33.0263 93.6234 59.6538 85.6879 68.7205V68.7205Z" fill="#279AF1"/>
<path d="M92.6641 27.3412C89.16 23.8371 77.5064 24.4271 67.0798 27.1651L92.9166 53.0019C95.7058 42.5233 96.2033 30.8804 92.6641 27.3412Z" fill="#A8D0FF"/>
<path d="M72.8669 63.9585C70.6357 66.1897 67.6096 67.4432 64.4542 67.4432C61.2988 67.4432 58.2727 66.1897 56.0415 63.9585C53.8103 61.7273 52.5568 58.7012 52.5568 55.5458C52.5568 52.3904 53.8103 49.3643 56.0415 47.1331C57.1463 46.0283 58.4578 45.152 59.9013 44.5541C61.3447 43.9562 62.8918 43.6484 64.4542 43.6484C66.0166 43.6484 67.5637 43.9562 69.0071 44.5541C70.4506 45.152 71.7621 46.0283 72.8669 47.1331C73.9717 48.2379 74.848 49.5494 75.4459 50.9929C76.0438 52.4363 76.3516 53.9834 76.3516 55.5458C76.3516 57.1082 76.0438 58.6553 75.4459 60.0987C74.848 61.5422 73.9717 62.8537 72.8669 63.9585V63.9585Z" fill="white"/>
<path d="M50.3859 80.5012C48.9422 81.945 46.9841 82.756 44.9424 82.756C42.9006 82.756 40.9425 81.945 39.4988 80.5013C38.0551 79.0575 37.2441 77.0995 37.2441 75.0577C37.2441 73.016 38.0551 71.0579 39.4988 69.6142C40.9425 68.1705 42.9006 67.3594 44.9424 67.3594C46.9841 67.3594 48.9422 68.1705 50.3859 69.6142C51.8296 71.0579 52.6406 73.016 52.6406 75.0577C52.6406 77.0994 51.8296 79.0575 50.3859 80.5012V80.5012Z" fill="#A8D0FF"/>
</svg>
